<?xml version="1.0" standalone="no"?>
<!DOCTYPE svg PUBLIC "-//W3C//DTD SVG 20010904//EN"
 "http://www.w3.org/TR/2001/REC-SVG-20010904/DTD/svg10.dtd">
<svg version="1.0" xmlns="http://www.w3.org/2000/svg"
 width="1299.000000pt" height="1299.000000pt" viewBox="0 0 1299.000000 1299.000000"
 preserveAspectRatio="xMidYMid meet">
<metadata>
Created by potrace 1.16, written by Peter Selinger 2001-2019
</metadata>
<g transform="translate(0.000000,1299.000000) scale(0.100000,-0.100000)"
fill="#000000" stroke="none">
<path d="M5155 12140 c-1021 -64 -1971 -448 -2741 -1107 -137 -116 -405 -386
-515 -518 -450 -536 -779 -1179 -948 -1853 -73 -290 -113 -564 -132 -887 -13
-220 -3 -585 14 -525 210 739 618 1430 1167 1980 367 367 752 643 1224 877
523 258 1082 413 1666 463 184 15 608 13 795 -5 775 -73 1504 -335 2160 -774
409 -274 800 -647 1108 -1057 464 -618 772 -1378 877 -2164 11 -84 20 -171 20
-194 1 -142 101 324 141 657 18 150 22 237 23 497 0 308 -6 407 -40 655 -156
1118 -732 2159 -1594 2881 -713 597 -1581 963 -2510 1059 -181 18 -543 26
-715 15z"/>
<path d="M4035 7449 c-274 -36 -523 -153 -716 -334 -230 -216 -359 -450 -410
-743 -74 -437 66 -887 370 -1193 189 -188 413 -306 684 -358 288 -56 598 -28
838 75 192 82 386 247 509 435 144 219 206 409 217 667 l6 142 -642 0 -641 0
0 -225 0 -225 371 0 371 0 -32 -57 c-74 -130 -185 -245 -290 -298 -27 -14 -88
-37 -137 -51 -78 -24 -105 -27 -243 -27 -115 -1 -173 3 -225 16 -191 48 -322
123 -456 263 -109 115 -177 233 -214 374 -26 100 -31 288 -11 391 37 179 101
295 240 434 193 191 388 264 676 252 246 -10 432 -88 635 -265 l79 -69 168
165 168 166 -47 49 c-57 58 -180 161 -244 205 -120 81 -304 155 -481 193 -108
23 -426 34 -543 18z"/>
<path d="M8558 7450 c-388 -70 -648 -374 -600 -703 13 -86 55 -188 113 -274
81 -119 263 -283 604 -543 305 -233 379 -319 380 -441 0 -44 -6 -65 -28 -97
-89 -135 -304 -182 -469 -104 -98 47 -171 120 -284 280 -10 13 -38 0 -215 -96
-112 -61 -212 -117 -222 -124 -16 -12 -14 -18 29 -83 203 -309 432 -446 785
-471 170 -12 394 28 522 93 227 114 368 304 397 535 25 198 -31 378 -170 545
-71 86 -155 159 -385 336 -481 371 -545 433 -545 527 0 64 52 124 134 155 35
13 65 16 126 13 117 -7 206 -53 322 -167 l87 -87 187 151 c103 82 189 155 191
162 6 16 -187 186 -285 250 -158 104 -286 143 -487 148 -77 2 -161 0 -187 -5z"/>
<path d="M5860 6129 l0 -1270 528 4 c490 4 533 5 612 25 176 42 297 109 407
226 81 84 135 174 171 284 35 109 37 283 3 392 -59 191 -161 305 -376 421
l-85 46 63 50 c100 80 174 188 203 295 18 71 18 216 -2 292 -60 234 -284 414
-586 471 -126 23 -342 35 -655 35 l-283 0 0 -1271z m858 783 c76 -30 121 -67
148 -126 51 -109 19 -243 -74 -313 -64 -48 -129 -65 -274 -70 l-128 -5 0 272
0 273 138 -5 c106 -4 149 -10 190 -26z m74 -971 c137 -36 218 -93 265 -189 24
-48 28 -69 27 -137 0 -94 -20 -141 -82 -197 -77 -69 -182 -94 -444 -104 l-168
-7 0 333 0 333 163 -6 c114 -4 185 -12 239 -26z"/>
</g>
</svg>
